<?xml version="1.0" encoding="UTF-8" standalone="no"?><!DOCTYPE svg PUBLIC "-//W3C//DTD SVG 1.1//EN" "http://www.w3.org/Graphics/SVG/1.1/DTD/svg11.dtd"><svg width="100%" height="100%" viewBox="0 0 2084 1209" version="1.1" xmlns="http://www.w3.org/2000/svg" xmlns:xlink="http://www.w3.org/1999/xlink" xml:space="preserve" xmlns:serif="http://www.serif.com/" style="fill-rule:evenodd;clip-rule:evenodd;stroke-linejoin:round;stroke-miterlimit:2;"><path d="M83.75,1016.667c4.846,-185.265 63.33,-365.205 168.333,-517.917l257.5,177.083c-70.673,102.847 -110.046,224.005 -113.333,348.75l-312.5,-7.917Z" style="fill:#ebebeb;fill-rule:nonzero;"/><path d="M281.25,458.333c112.773,-146.982 265.783,-258.157 440.417,-320l104.583,294.583c-117.761,41.565 -220.976,116.407 -297.083,215.417l-247.917,-190Z" style="fill:#ebebeb;fill-rule:nonzero;"/><path d="M769.583,122.917c177.559,-52.575 366.608,-52.575 544.167,-0l-88.75,299.583c-119.642,-35.42 -247.024,-35.42 -366.667,0l-88.75,-299.583Z" style="fill:#ebebeb;fill-rule:nonzero;"/><path d="M1361.667,138.333c174.634,61.843 327.644,173.018 440.417,320l-247.917,190c-76.107,-99.01 -179.322,-173.852 -297.083,-215.417l104.583,-294.583Z" style="fill:#ebebeb;fill-rule:nonzero;"/><path d="M1831.25,498.75c105.003,152.711 163.488,332.652 168.333,517.917l-312.5,7.917c-3.287,-124.745 -42.66,-245.903 -113.333,-348.75l257.5,-177.083Z" style="fill:#ebebeb;fill-rule:nonzero;"/><text x="425.446px" y="1008.333px" style="font-family:'ArialMT', 'Arial', sans-serif;font-size:58.333px;fill:#b0b0b0;">0</text><text x="534.224px" y="691.667px" style="font-family:'ArialMT', 'Arial', sans-serif;font-size:58.333px;fill:#b0b0b0;">25</text><text x="1009.224px" y="470.833px" style="font-family:'ArialMT', 'Arial', sans-serif;font-size:58.333px;fill:#b0b0b0;">50</text><text x="1467.558px" y="691.667px" style="font-family:'ArialMT', 'Arial', sans-serif;font-size:58.333px;fill:#b0b0b0;">75</text><text x="1559.67px" y="1008.333px" style="font-family:'ArialMT', 'Arial', sans-serif;font-size:58.333px;fill:#b0b0b0;">100</text><circle cx="445" cy="938.75" r="8.333" style="fill:#d0d0d0;"/><circle cx="467.083" cy="855" r="8.333" style="fill:#d0d0d0;"/><circle cx="503.333" cy="767.5" r="8.333" style="fill:#d0d0d0;"/><circle cx="645" cy="594.583" r="8.333" style="fill:#d0d0d0;"/><circle cx="725.833" cy="528.333" r="8.333" style="fill:#d0d0d0;"/><circle cx="830" cy="483.75" r="8.333" style="fill:#d0d0d0;"/><circle cx="947.083" cy="453.333" r="8.333" style="fill:#d0d0d0;"/><circle cx="1136.25" cy="453.333" r="8.333" style="fill:#d0d0d0;"/><circle cx="1253.333" cy="483.75" r="8.333" style="fill:#d0d0d0;"/><circle cx="1357.5" cy="528.333" r="8.333" style="fill:#d0d0d0;"/><circle cx="1438.333" cy="594.583" r="8.333" style="fill:#d0d0d0;"/><circle cx="1580" cy="767.5" r="8.333" style="fill:#d0d0d0;"/><circle cx="1616.25" cy="855" r="8.333" style="fill:#d0d0d0;"/><circle cx="1638.333" cy="938.75" r="8.333" style="fill:#d0d0d0;"/><g id="NERVOUS" transform="matrix(0.809017,-0.587785,0.587785,0.809017,-226.31546,-85.60774)"><text x="275.156px" y="837.274px" style="font-family:'AppleSDGothicNeo-Bold', 'Apple SD Gothic Neo';font-weight:700;font-size:95.655px;fill:#868b94;">불안</text></g><g id="EXCITED" transform="matrix(0.768279,0.640115,-0.640115,0.768279,58.485705,-990.257361)"><text x="1917.055px" y="117.467px" style="font-family:'AppleSDGothicNeo-Bold', 'Apple SD Gothic Neo';font-weight:700;font-size:95.655px;fill:#868b94;">기대</text></g><text id="NEUTRAL" x="955.647px" y="245.999px" style="font-family:'AppleSDGothicNeo-Bold', 'Apple SD Gothic Neo';font-weight:700;font-size:95.833px;fill:#868b94;">중립</text><g id="DOMHWANGCHA" transform="matrix(0.241922,-0.970296,0.970296,0.241922,-2101.85664,667.439778)"><text x="327.694px" y="2320.679px" style="font-family:'AppleSDGothicNeo-Bold', 'Apple SD Gothic Neo';font-weight:700;font-size:95.833px;fill:#868b94;">돔황챠</text></g><g id="GAZUA" transform="matrix(0.241922,0.970296,-0.970296,0.241922,1259.074107,-2430.619512)"><text x="3136.543px" y="232.293px" style="font-family:'AppleSDGothicNeo-Bold', 'Apple SD Gothic Neo';font-weight:700;font-size:95.833px;fill:#868b94;">가즈아</text></g></svg>